General
Format                                   : Windows Media
File size                                : 1.37 GiB
Duration                                 : 2h 1mn
Overall bit rate mode                    : Variable
Overall bit rate                         : 1 608 Kbps
Maximum Overall bit rate                 : 4 591 Kbps
WM/SharedUserRating                      : 99
MediaFoundationVersion                   : 2.112

Video
ID                                       : 2
Format                                   : VC-1
Format profile                           : MP@ML
Codec ID                                 : WMV3
Codec ID/Info                            : Windows Media Video 9
Codec ID/Hint                            : WMV3
Description of the codec                 : Windows Media Video 9 - Professional
Duration                                 : 2h 1mn
Bit rate mode                            : Variable
Bit rate                                 : 1 500 Kbps
Width                                    : 720 pixels
Height                                   : 480 pixels
Display aspect ratio                     : 3:2
Frame rate                               : 29.970 fps
Standard                                 : NTSC
Bit depth                                : 8 bits
Scan type                                : Progressive
Compression mode                         : Lossy
Bits/(Pixel*Frame)                       : 0.145
Stream size                              : 1.27 GiB (93%)
Language                                 : English (US)
NumberOfFrames                           : 218614

Audio
ID                                       : 1
Format                                   : WMA
Format version                           : Version 2
Codec ID                                 : 161
Codec ID/Info                            : Windows Media Audio
Description of the codec                 : Windows Media Audio 9.2 -  96 kbps, 48 kHz, stereo 2-pass VBR
Duration                                 : 2h 1mn
Bit rate mode                            : Variable
Bit rate                                 : 96.1 Kbps
Channel(s)                               : 2 channels
Sampling rate                            : 48.0 KHz
Bit depth                                : 16 bits
Stream size                              : 83.5 MiB (6%)
Language                                 : English (US)
NumberOfFrames                           : 21387




Ecoded by: Khadga Darai
Email: asthawin044@yahoo.com
visit me at facebook:
